<svg width="32" height="32" viewBox="0 0 32 32" fill="none" xmlns="http://www.w3.org/2000/svg">
<path d="M20.2933 12.5C20.5121 12.227 20.8295 12.0509 21.177 12.0097C21.5244 11.9686 21.8741 12.0657 22.1507 12.28L22.276 12.3907L27.6093 17.724C27.8166 17.9314 27.9496 18.2014 27.988 18.492L28 18.6667V25.3334C28 25.6599 27.8801 25.9751 27.663 26.2192C27.446 26.4632 27.147 26.6192 26.8227 26.6574L26.6667 26.6667H5.304L5.15733 26.6547L5.01067 26.628L4.868 26.5827L4.728 26.5214L4.59467 26.4427L4.46933 26.3494L4.38933 26.276L4.29333 26.1667L4.208 26.048L4.136 25.92L4.11467 25.8734L4.06133 25.736L4.02533 25.5947L4.00533 25.4507L4 25.304L4.012 25.1574L4.03733 25.0174C4.05067 24.964 4.06667 24.9147 4.084 24.868L4.14533 24.728L4.224 24.5947L9.55733 16.5947C9.72149 16.3475 9.96338 16.1622 10.2447 16.068C10.5261 15.9738 10.8308 15.9762 11.1107 16.0747L11.2627 16.1414L15.632 18.3254L20.292 12.5H20.2933Z" fill="#C49D76"/>
<path d="M20.3094 4.47984C20.5307 4.21405 20.8465 4.04462 21.1903 4.0073C21.5341 3.96998 21.879 4.06771 22.1521 4.27984L22.2761 4.39051L27.6094 9.72384C27.8486 9.96379 27.9874 10.2858 27.9977 10.6244C28.0081 10.963 27.8891 11.2928 27.6651 11.5469C27.4411 11.801 27.1287 11.9602 26.7915 11.9924C26.4542 12.0245 26.1174 11.9271 25.8494 11.7198L25.7241 11.6092L21.4228 7.30918L15.6908 14.1865C15.5167 14.3954 15.2829 14.546 15.0207 14.6182C14.7586 14.6904 14.4806 14.6808 14.2241 14.5905L14.0708 14.5252L9.7321 12.3572L6.4001 16.7998C6.20532 17.0596 5.92244 17.2394 5.60454 17.3054C5.28664 17.3714 4.95556 17.3192 4.67344 17.1585L4.53344 17.0665C4.27367 16.8717 4.0939 16.5888 4.02787 16.2709C3.96184 15.953 4.01407 15.622 4.17477 15.3398L4.26677 15.1998L8.26677 9.86651C8.43777 9.63875 8.67721 9.47172 8.95001 9.38991C9.22282 9.30809 9.51465 9.31578 9.78277 9.41184L9.92944 9.47451L14.3174 11.6678L20.3094 4.47984Z" fill="#C49D76"/>
</svg>
