<svg xmlns="http://www.w3.org/2000/svg" width="24" height="24" viewBox="0 0 24 24" fill="none">
    <path fill-rule="evenodd" clip-rule="evenodd" d="M10.8614 8.33888C11.3795 7.64067 11.5653 6.90482 10.9793 6.25529C9.66437 4.41531 8.78003 3.27747 8.22533 2.72951C7.17077 1.68778 5.436 1.82869 4.52267 2.72862C4.03212 3.21199 3.86604 3.37797 3.36235 3.88959C0.556699 6.69674 2.26773 12.631 6.81627 17.184C11.3638 21.736 17.2975 23.4479 20.109 20.6348C20.5738 20.1867 20.9673 19.793 21.2777 19.465C22.1727 18.5189 22.3086 16.8607 21.2718 15.7834C20.7402 15.2311 19.6552 14.3894 17.7378 13.0179C17.1506 12.4928 16.4543 12.6066 15.8159 13.0254C15.5089 13.2269 15.2854 13.4307 14.8634 13.853L14.0972 14.6197C13.9963 14.7207 12.6259 14.0344 11.2956 12.7028C9.9646 11.3705 9.27878 10 9.37923 9.89959L10.146 9.1324C10.2799 8.99839 10.3439 8.93351 10.426 8.84725C10.597 8.66752 10.7386 8.50441 10.8614 8.33888ZM15.5106 16.0339L16.277 15.2671C16.5092 15.0346 16.6597 14.8917 16.7822 14.7932C18.4618 15.9994 19.4346 16.7578 19.8319 17.1707C20.0705 17.4185 20.0334 17.8708 19.8261 18.09C19.5391 18.3934 19.1662 18.7664 18.7086 19.2078C16.8906 21.0266 12.1008 19.6447 8.23001 15.7701C4.35803 11.8943 2.97677 7.10377 4.78108 5.29846C5.28274 4.78895 5.44168 4.63009 5.92524 4.15363C6.10654 3.97498 6.6004 3.93487 6.82096 4.15274C7.24802 4.57461 8.04022 5.58897 9.20559 7.21231C9.14526 7.28721 9.06991 7.37185 8.97821 7.46822C8.91091 7.53895 8.85484 7.59579 8.73226 7.71849L7.96624 8.48493C6.66309 9.78797 7.7729 12.0057 9.88186 14.1167C11.9894 16.2263 14.2079 17.3373 15.5106 16.0339Z" fill="#262B31"/>
</svg>