<svg width="24" height="24" viewBox="0 0 24 24" fill="none" xmlns="http://www.w3.org/2000/svg">
<path fill-rule="evenodd" clip-rule="evenodd" d="M17.6706 6.35836C17.6828 6.37104 17.695 6.38371 17.7065 6.39703C17.7181 6.41045 17.7295 6.42389 17.7403 6.43777C17.7476 6.44715 17.7541 6.45713 17.761 6.46677C17.7721 6.48218 17.7827 6.49785 17.7928 6.51373C17.7989 6.52331 17.805 6.53293 17.8108 6.54273C17.8461 6.60256 17.8739 6.66537 17.8957 6.72987C17.9072 6.76393 17.9175 6.79854 17.9254 6.83414C17.9274 6.84314 17.9299 6.85202 17.9316 6.86107C17.9433 6.92233 17.9496 6.98558 17.9496 7.05027L17.9496 14.1213C17.9495 14.6736 17.5019 15.1212 16.9497 15.1212C16.3974 15.1212 15.9498 14.6736 15.9498 14.1213L15.9498 9.46438L7.75727 17.6569C7.36675 18.0474 6.73357 18.0474 6.34306 17.6569C5.95254 17.2664 5.95255 16.6332 6.34306 16.2427L14.5356 8.05017L9.87859 8.05017C9.32631 8.05016 8.8787 7.60255 8.8787 7.05027C8.87871 6.498 9.32632 6.05039 9.87859 6.05038L16.9497 6.05038C17.0371 6.05038 17.1243 6.06214 17.2093 6.08491C17.2254 6.08922 17.2412 6.09432 17.2569 6.09941C17.3236 6.12089 17.3885 6.1492 17.4503 6.18503C17.4651 6.19363 17.4801 6.20195 17.4945 6.21127C17.5039 6.21739 17.5129 6.22415 17.5221 6.23061C17.5367 6.2408 17.5509 6.25144 17.5649 6.26237C17.579 6.27341 17.5927 6.285 17.6064 6.2969C17.6184 6.3074 17.63 6.3183 17.6416 6.32936C17.6465 6.33408 17.6519 6.33832 17.6568 6.34317C17.6616 6.34802 17.6658 6.35344 17.6706 6.35836Z" fill="#BF9076"/>
</svg>
