<svg width="638" height="324" viewBox="0 0 638 324" fill="none" xmlns="http://www.w3.org/2000/svg">
<g clip-path="url(#clip0_74_2806)">
<path d="M135.305 157.109H168.16V169.689H135.305V157.109ZM211.887 156.833H222.82V171.066H211.887V156.833ZM2.33594 3.4082V314.997H348.267V314.955H637.999V156.959H576.707V159.413H547.439V164.364H540.374V206.933H514.487V238.427H360.17V163.372H318.676V86.6567H336.363V3.4082H2.33594Z" fill="#EAEAEA"/>
<path d="M337.45 0.221191H333.002V3.34346H337.45V0.221191Z" fill="white"/>
<path d="M337.45 0.221191H333.002V1.46649H337.45V0.221191Z" fill="white"/>
<path d="M334.478 0.221191H333.002V3.34346H334.478V0.221191Z" fill="white"/>
<mask id="mask0_74_2806" style="mask-type:luminance" maskUnits="userSpaceOnUse" x="0" y="0" width="638" height="324">
<path d="M638 0H0V324H638V0Z" fill="white"/>
</mask>
<g mask="url(#mask0_74_2806)">
<path d="M334.478 0.221191H333.002V3.34346H334.478V0.221191Z" stroke="#46515D" stroke-width="0.175481" stroke-linecap="round" stroke-linejoin="round"/>
</g>
<path d="M324.694 0.221191H296.842V3.34346H324.694V0.221191Z" fill="white"/>
<mask id="mask1_74_2806" style="mask-type:luminance" maskUnits="userSpaceOnUse" x="0" y="0" width="638" height="324">
<path d="M638 0H0V324H638V0Z" fill="white"/>
</mask>
<g mask="url(#mask1_74_2806)">
<path d="M324.694 0.221191H296.842V3.34346H324.694V0.221191Z" stroke="#46515D" stroke-width="0.175481" stroke-linecap="round" stroke-linejoin="round"/>
</g>
<path d="M324.694 0.221191H296.842V1.46649H324.694V0.221191Z" fill="white"/>
<mask id="mask2_74_2806" style="mask-type:luminance" maskUnits="userSpaceOnUse" x="0" y="0" width="638" height="324">
<path d="M638 0H0V324H638V0Z" fill="white"/>
</mask>
<g mask="url(#mask2_74_2806)">
<path d="M324.694 0.221191H296.842V1.46649H324.694V0.221191Z" stroke="#46515D" stroke-width="0.175481" stroke-linecap="round" stroke-linejoin="round"/>
</g>
<path d="M298.318 0.221191H296.842V3.34346H298.318V0.221191Z" fill="white"/>
<mask id="mask3_74_2806" style="mask-type:luminance" maskUnits="userSpaceOnUse" x="0" y="0" width="638" height="324">
<path d="M638 0H0V324H638V0Z" fill="white"/>
</mask>
<g mask="url(#mask3_74_2806)">
<path d="M298.318 0.221191H296.842V3.34346H298.318V0.221191Z" stroke="#46515D" stroke-width="0.175481" stroke-linecap="round" stroke-linejoin="round"/>
</g>
<path d="M324.694 0.221191H323.218V3.34346H324.694V0.221191Z" fill="white"/>
<mask id="mask4_74_2806" style="mask-type:luminance" maskUnits="userSpaceOnUse" x="0" y="0" width="638" height="324">
<path d="M638 0H0V324H638V0Z" fill="white"/>
</mask>
<g mask="url(#mask4_74_2806)">
<path d="M324.694 0.221191H323.218V3.34346H324.694V0.221191Z" stroke="#46515D" stroke-width="0.175481" stroke-linecap="round" stroke-linejoin="round"/>
</g>
<path d="M288.513 0.221191H260.387V3.34346H288.513V0.221191Z" fill="white"/>
<mask id="mask5_74_2806" style="mask-type:luminance" maskUnits="userSpaceOnUse" x="0" y="0" width="638" height="324">
<path d="M638 0H0V324H638V0Z" fill="white"/>
</mask>
<g mask="url(#mask5_74_2806)">
<path d="M288.513 0.221191H260.387V3.34346H288.513V0.221191Z" stroke="#46515D" stroke-width="0.175481" stroke-linecap="round" stroke-linejoin="round"/>
</g>
<path d="M288.513 0.221191H260.387V1.46649H288.513V0.221191Z" fill="white"/>
<mask id="mask6_74_2806" style="mask-type:luminance" maskUnits="userSpaceOnUse" x="0" y="0" width="638" height="324">
<path d="M638 0H0V324H638V0Z" fill="white"/>
</mask>
<g mask="url(#mask6_74_2806)">
<path d="M288.513 0.221191H260.387V1.46649H288.513V0.221191Z" stroke="#46515D" stroke-width="0.175481" stroke-linecap="round" stroke-linejoin="round"/>
</g>
<path d="M261.875 0.221191H260.387V3.34346H261.875V0.221191Z" fill="white"/>
<mask id="mask7_74_2806" style="mask-type:luminance" maskUnits="userSpaceOnUse" x="0" y="0" width="638" height="324">
<path d="M638 0H0V324H638V0Z" fill="white"/>
</mask>
<g mask="url(#mask7_74_2806)">
<path d="M261.875 0.221191H260.387V3.34346H261.875V0.221191Z" stroke="#46515D" stroke-width="0.175481" stroke-linecap="round" stroke-linejoin="round"/>
</g>
<path d="M288.512 0.221191H287.023V3.34346H288.512V0.221191Z" fill="white"/>
<mask id="mask8_74_2806" style="mask-type:luminance" maskUnits="userSpaceOnUse" x="0" y="0" width="638" height="324">
<path d="M638 0H0V324H638V0Z" fill="white"/>
</mask>
<g mask="url(#mask8_74_2806)">
<path d="M288.512 0.221191H287.023V3.34346H288.512V0.221191Z" stroke="#46515D" stroke-width="0.175481" stroke-linecap="round" stroke-linejoin="round"/>
</g>
<path d="M252.058 0.221191H224.206V3.34346H252.058V0.221191Z" fill="white"/>
<mask id="mask9_74_2806" style="mask-type:luminance" maskUnits="userSpaceOnUse" x="0" y="0" width="638" height="324">
<path d="M638 0H0V324H638V0Z" fill="white"/>
</mask>
<g mask="url(#mask9_74_2806)">
<path d="M252.058 0.221191H224.206V3.34346H252.058V0.221191Z" stroke="#46515D" stroke-width="0.175481" stroke-linecap="round" stroke-linejoin="round"/>
</g>
<path d="M252.058 0.221191H224.206V1.46649H252.058V0.221191Z" fill="white"/>
<mask id="mask10_74_2806" style="mask-type:luminance" maskUnits="userSpaceOnUse" x="0" y="0" width="638" height="324">
<path d="M638 0H0V324H638V0Z" fill="white"/>
</mask>
<g mask="url(#mask10_74_2806)">
<path d="M252.058 0.221191H224.206V1.46649H252.058V0.221191Z" stroke="#46515D" stroke-width="0.175481" stroke-linecap="round" stroke-linejoin="round"/>
</g>
<path d="M225.683 0.221191H224.206V3.34346H225.683V0.221191Z" fill="white"/>
<mask id="mask11_74_2806" style="mask-type:luminance" maskUnits="userSpaceOnUse" x="0" y="0" width="638" height="324">
<path d="M638 0H0V324H638V0Z" fill="white"/>
</mask>
<g mask="url(#mask11_74_2806)">
<path d="M225.683 0.221191H224.206V3.34346H225.683V0.221191Z" stroke="#46515D" stroke-width="0.175481" stroke-linecap="round" stroke-linejoin="round"/>
</g>
<path d="M252.065 0.221191H250.589V3.34346H252.065V0.221191Z" fill="white"/>
<mask id="mask12_74_2806" style="mask-type:luminance" maskUnits="userSpaceOnUse" x="0" y="0" width="638" height="324">
<path d="M638 0H0V324H638V0Z" fill="white"/>
</mask>
<g mask="url(#mask12_74_2806)">
<path d="M252.065 0.221191H250.589V3.34346H252.065V0.221191Z" stroke="#46515D" stroke-width="0.175481" stroke-linecap="round" stroke-linejoin="round"/>
</g>
<path d="M215.94 0.221191H187.759V3.34346H215.94V0.221191Z" fill="white"/>
<mask id="mask13_74_2806" style="mask-type:luminance" maskUnits="userSpaceOnUse" x="0" y="0" width="638" height="324">
<path d="M638 0H0V324H638V0Z" fill="white"/>
</mask>
<g mask="url(#mask13_74_2806)">
<path d="M215.94 0.221191H187.759V3.34346H215.94V0.221191Z" stroke="#46515D" stroke-width="0.175481" stroke-linecap="round" stroke-linejoin="round"/>
</g>
<path d="M215.94 0.221191H187.759V1.46649H215.94V0.221191Z" fill="white"/>
<mask id="mask14_74_2806" style="mask-type:luminance" maskUnits="userSpaceOnUse" x="0" y="0" width="638" height="324">
<path d="M638 0H0V324H638V0Z" fill="white"/>
</mask>
<g mask="url(#mask14_74_2806)">
<path d="M215.94 0.221191H187.759V1.46649H215.94V0.221191Z" stroke="#46515D" stroke-width="0.175481" stroke-linecap="round" stroke-linejoin="round"/>
</g>
<path d="M189.254 0.221191H187.759V3.34346H189.254V0.221191Z" fill="white"/>
<mask id="mask15_74_2806" style="mask-type:luminance" maskUnits="userSpaceOnUse" x="0" y="0" width="638" height="324">
<path d="M638 0H0V324H638V0Z" fill="white"/>
</mask>
<g mask="url(#mask15_74_2806)">
<path d="M189.254 0.221191H187.759V3.34346H189.254V0.221191Z" stroke="#46515D" stroke-width="0.175481" stroke-linecap="round" stroke-linejoin="round"/>
</g>
<path d="M215.943 0.221191H214.448V3.34346H215.943V0.221191Z" fill="white"/>
<mask id="mask16_74_2806" style="mask-type:luminance" maskUnits="userSpaceOnUse" x="0" y="0" width="638" height="324">
<path d="M638 0H0V324H638V0Z" fill="white"/>
</mask>
<g mask="url(#mask16_74_2806)">
<path d="M215.943 0.221191H214.448V3.34346H215.943V0.221191Z" stroke="#46515D" stroke-width="0.175481" stroke-linecap="round" stroke-linejoin="round"/>
</g>
<path d="M179.427 0.221191H151.344V3.34346H179.427V0.221191Z" fill="white"/>
<mask id="mask17_74_2806" style="mask-type:luminance" maskUnits="userSpaceOnUse" x="0" y="0" width="638" height="324">
<path d="M638 0H0V324H638V0Z" fill="white"/>
</mask>
<g mask="url(#mask17_74_2806)">
<path d="M179.427 0.221191H151.344V3.34346H179.427V0.221191Z" stroke="#46515D" stroke-width="0.175481" stroke-linecap="round" stroke-linejoin="round"/>
</g>
<path d="M179.427 0.221191H151.344V1.46649H179.427V0.221191Z" fill="white"/>
<mask id="mask18_74_2806" style="mask-type:luminance" maskUnits="userSpaceOnUse" x="0" y="0" width="638" height="324">
<path d="M638 0H0V324H638V0Z" fill="white"/>
</mask>
<g mask="url(#mask18_74_2806)">
<path d="M179.427 0.221191H151.344V1.46649H179.427V0.221191Z" stroke="#46515D" stroke-width="0.175481" stroke-linecap="round" stroke-linejoin="round"/>
</g>
<path d="M152.832 0.221191H151.344V3.34346H152.832V0.221191Z" fill="white"/>
<mask id="mask19_74_2806" style="mask-type:luminance" maskUnits="userSpaceOnUse" x="0" y="0" width="638" height="324">
<path d="M638 0H0V324H638V0Z" fill="white"/>
</mask>
<g mask="url(#mask19_74_2806)">
<path d="M152.832 0.221191H151.344V3.34346H152.832V0.221191Z" stroke="#46515D" stroke-width="0.175481" stroke-linecap="round" stroke-linejoin="round"/>
</g>
<path d="M179.429 0.221191H177.94V3.34346H179.429V0.221191Z" fill="white"/>
<mask id="mask20_74_2806" style="mask-type:luminance" maskUnits="userSpaceOnUse" x="0" y="0" width="638" height="324">
<path d="M638 0H0V324H638V0Z" fill="white"/>
</mask>
<g mask="url(#mask20_74_2806)">
<path d="M179.429 0.221191H177.94V3.34346H179.429V0.221191Z" stroke="#46515D" stroke-width="0.175481" stroke-linecap="round" stroke-linejoin="round"/>
</g>
<path d="M143.109 0.221191H115.257V3.34346H143.109V0.221191Z" fill="white"/>
<mask id="mask21_74_2806" style="mask-type:luminance" maskUnits="userSpaceOnUse" x="0" y="0" width="638" height="324">
<path d="M638 0H0V324H638V0Z" fill="white"/>
</mask>
<g mask="url(#mask21_74_2806)">
<path d="M143.109 0.221191H115.257V3.34346H143.109V0.221191Z" stroke="#46515D" stroke-width="0.175481" stroke-linecap="round" stroke-linejoin="round"/>
</g>
<path d="M143.109 0.221191H115.257V1.46649H143.109V0.221191Z" fill="white"/>
<mask id="mask22_74_2806" style="mask-type:luminance" maskUnits="userSpaceOnUse" x="0" y="0" width="638" height="324">
<path d="M638 0H0V324H638V0Z" fill="white"/>
</mask>
<g mask="url(#mask22_74_2806)">
<path d="M143.109 0.221191H115.257V1.46649H143.109V0.221191Z" stroke="#46515D" stroke-width="0.175481" stroke-linecap="round" stroke-linejoin="round"/>
</g>
<path d="M116.733 0.221191H115.257V3.34346H116.733V0.221191Z" fill="white"/>
<mask id="mask23_74_2806" style="mask-type:luminance" maskUnits="userSpaceOnUse" x="0" y="0" width="638" height="324">
<path d="M638 0H0V324H638V0Z" fill="white"/>
</mask>
<g mask="url(#mask23_74_2806)">
<path d="M116.733 0.221191H115.257V3.34346H116.733V0.221191Z" stroke="#46515D" stroke-width="0.175481" stroke-linecap="round" stroke-linejoin="round"/>
</g>
<path d="M143.109 0.221191H141.633V3.34346H143.109V0.221191Z" fill="white"/>
<mask id="mask24_74_2806" style="mask-type:luminance" maskUnits="userSpaceOnUse" x="0" y="0" width="638" height="324">
<path d="M638 0H0V324H638V0Z" fill="white"/>
</mask>
<g mask="url(#mask24_74_2806)">
<path d="M143.116 0.221191H141.64V3.34346H143.116V0.221191Z" stroke="#46515D" stroke-width="0.175481" stroke-linecap="round" stroke-linejoin="round"/>
</g>
<path d="M107.048 0.221191H78.8359V3.34346H107.048V0.221191Z" fill="white"/>
<mask id="mask25_74_2806" style="mask-type:luminance" maskUnits="userSpaceOnUse" x="0" y="0" width="638" height="324">
<path d="M638 0H0V324H638V0Z" fill="white"/>
</mask>
<g mask="url(#mask25_74_2806)">
<path d="M107.048 0.221191H78.8359V3.34346H107.048V0.221191Z" stroke="#46515D" stroke-width="0.175481" stroke-linecap="round" stroke-linejoin="round"/>
</g>
<path d="M107.048 0.221191H78.8359V1.46649H107.048V0.221191Z" fill="white"/>
<mask id="mask26_74_2806" style="mask-type:luminance" maskUnits="userSpaceOnUse" x="0" y="0" width="638" height="324">
<path d="M638 0H0V324H638V0Z" fill="white"/>
</mask>
<g mask="url(#mask26_74_2806)">
<path d="M107.048 0.221191H78.8359V1.46649H107.048V0.221191Z" stroke="#46515D" stroke-width="0.175481" stroke-linecap="round" stroke-linejoin="round"/>
</g>
<path d="M80.3307 0.221191H78.8359V3.34346H80.3307V0.221191Z" fill="white"/>
<mask id="mask27_74_2806" style="mask-type:luminance" maskUnits="userSpaceOnUse" x="0" y="0" width="638" height="324">
<path d="M638 0H0V324H638V0Z" fill="white"/>
</mask>
<g mask="url(#mask27_74_2806)">
<path d="M80.3307 0.221191H78.8359V3.34346H80.3307V0.221191Z" stroke="#46515D" stroke-width="0.175481" stroke-linecap="round" stroke-linejoin="round"/>
</g>
<path d="M107.048 0.221191H105.553V3.34346H107.048V0.221191Z" fill="white"/>
<mask id="mask28_74_2806" style="mask-type:luminance" maskUnits="userSpaceOnUse" x="0" y="0" width="638" height="324">
<path d="M638 0H0V324H638V0Z" fill="white"/>
</mask>
<g mask="url(#mask28_74_2806)">
<path d="M107.048 0.221191H105.553V3.34346H107.048V0.221191Z" stroke="#46515D" stroke-width="0.175481" stroke-linecap="round" stroke-linejoin="round"/>
</g>
<path d="M70.6132 0.221191H42.4014V3.34346H70.6132V0.221191Z" fill="white"/>
<mask id="mask29_74_2806" style="mask-type:luminance" maskUnits="userSpaceOnUse" x="0" y="0" width="638" height="324">
<path d="M638 0H0V324H638V0Z" fill="white"/>
</mask>
<g mask="url(#mask29_74_2806)">
<path d="M70.6132 0.221191H42.4014V3.34346H70.6132V0.221191Z" stroke="#46515D" stroke-width="0.175481" stroke-linecap="round" stroke-linejoin="round"/>
</g>
<path d="M70.6132 0.221191H42.4014V1.46649H70.6132V0.221191Z" fill="white"/>
<mask id="mask30_74_2806" style="mask-type:luminance" maskUnits="userSpaceOnUse" x="0" y="0" width="638" height="324">
<path d="M638 0H0V324H638V0Z" fill="white"/>
</mask>
<g mask="url(#mask30_74_2806)">
<path d="M70.6132 0.221191H42.4014V1.46649H70.6132V0.221191Z" stroke="#46515D" stroke-width="0.175481" stroke-linecap="round" stroke-linejoin="round"/>
</g>
<path d="M43.8962 0.221191H42.4014V3.34346H43.8962V0.221191Z" fill="white"/>
<mask id="mask31_74_2806" style="mask-type:luminance" maskUnits="userSpaceOnUse" x="0" y="0" width="638" height="324">
<path d="M638 0H0V324H638V0Z" fill="white"/>
</mask>
<g mask="url(#mask31_74_2806)">
<path d="M43.8962 0.221191H42.4014V3.34346H43.8962V0.221191Z" stroke="#46515D" stroke-width="0.175481" stroke-linecap="round" stroke-linejoin="round"/>
</g>
<path d="M70.6061 0.221191H69.1113V3.34346H70.6061V0.221191Z" fill="white"/>
<mask id="mask32_74_2806" style="mask-type:luminance" maskUnits="userSpaceOnUse" x="0" y="0" width="638" height="324">
<path d="M638 0H0V324H638V0Z" fill="white"/>
</mask>
<g mask="url(#mask32_74_2806)">
<path d="M70.613 0.221191H69.1182V3.34346H70.613V0.221191Z" stroke="#46515D" stroke-width="0.175481" stroke-linecap="round" stroke-linejoin="round"/>
</g>
<path d="M34.0791 0.221191H6.72754V3.34346H34.0791V0.221191Z" fill="white"/>
<mask id="mask33_74_2806" style="mask-type:luminance" maskUnits="userSpaceOnUse" x="0" y="0" width="638" height="324">
<path d="M638 0H0V324H638V0Z" fill="white"/>
</mask>
<g mask="url(#mask33_74_2806)">
<path d="M34.086 0.221191H6.73438V3.34346H34.086V0.221191Z" stroke="#46515D" stroke-width="0.175481" stroke-linecap="round" stroke-linejoin="round"/>
</g>
<path d="M34.0791 0.221191H6.72754V1.46649H34.0791V0.221191Z" fill="white"/>
<mask id="mask34_74_2806" style="mask-type:luminance" maskUnits="userSpaceOnUse" x="0" y="0" width="638" height="324">
<path d="M638 0H0V324H638V0Z" fill="white"/>
</mask>
<g mask="url(#mask34_74_2806)">
<path d="M34.086 0.221191H6.73438V1.46649H34.086V0.221191Z" stroke="#46515D" stroke-width="0.175481" stroke-linecap="round" stroke-linejoin="round"/>
</g>
<path d="M8.17352 0.221191H6.72754V3.34346H8.17352V0.221191Z" fill="white"/>
<mask id="mask35_74_2806" style="mask-type:luminance" maskUnits="userSpaceOnUse" x="0" y="0" width="638" height="324">
<path d="M638 0H0V324H638V0Z" fill="white"/>
</mask>
<g mask="url(#mask35_74_2806)">
<path d="M8.18035 0.221191H6.73438V3.34346H8.18035V0.221191Z" stroke="#46515D" stroke-width="0.175481" stroke-linecap="round" stroke-linejoin="round"/>
</g>
<path d="M34.0827 0.221191H32.6367V3.34346H34.0827V0.221191Z" fill="white"/>
<mask id="mask36_74_2806" style="mask-type:luminance" maskUnits="userSpaceOnUse" x="0" y="0" width="638" height="324">
<path d="M638 0H0V324H638V0Z" fill="white"/>
</mask>
<g mask="url(#mask36_74_2806)">
<path d="M34.0827 0.221191H32.6367V3.34346H34.0827V0.221191Z" stroke="#46515D" stroke-width="0.175481" stroke-linecap="round" stroke-linejoin="round"/>
</g>
<path d="M93.8336 314.998H56.5371V318.12H93.8336V314.998Z" fill="white"/>
<path d="M93.8336 314.998H56.5371V318.12H93.8336V314.998Z" stroke="#46515D" stroke-width="0.175481" stroke-linecap="round" stroke-linejoin="round"/>
<path d="M93.8336 316.88H56.5371V318.125H93.8336V316.88Z" fill="white"/>
<path d="M93.8336 316.88H56.5371V318.125H93.8336V316.88Z" stroke="#46515D" stroke-width="0.175481" stroke-linecap="round" stroke-linejoin="round"/>
<path d="M93.832 314.998H92.4775V318.12H93.832V314.998Z" fill="white"/>
<path d="M93.832 314.998H92.4775V318.12H93.832V314.998Z" stroke="#46515D" stroke-width="0.175481" stroke-linecap="round" stroke-linejoin="round"/>
<path d="M57.8916 314.998H56.5371V318.12H57.8916V314.998Z" fill="white"/>
<path d="M57.8916 314.998H56.5371V318.12H57.8916V314.998Z" stroke="#46515D" stroke-width="0.175481" stroke-linecap="round" stroke-linejoin="round"/>
<path d="M166.972 314.998H129.986V318.12H166.972V314.998Z" fill="white"/>
<path d="M166.972 314.998H129.986V318.12H166.972V314.998Z" stroke="#46515D" stroke-width="0.175481" stroke-linecap="round" stroke-linejoin="round"/>
<path d="M166.972 316.88H129.986V318.125H166.972V316.88Z" fill="white"/>
<path d="M166.972 316.88H129.986V318.125H166.972V316.88Z" stroke="#46515D" stroke-width="0.175481" stroke-linecap="round" stroke-linejoin="round"/>
<path d="M166.969 314.998H165.627V318.12H166.969V314.998Z" fill="white"/>
<path d="M166.969 314.998H165.627V318.12H166.969V314.998Z" stroke="#46515D" stroke-width="0.175481" stroke-linecap="round" stroke-linejoin="round"/>
<path d="M131.329 314.998H129.986V318.12H131.329V314.998Z" fill="white"/>
<path d="M131.329 314.998H129.986V318.12H131.329V314.998Z" stroke="#46515D" stroke-width="0.175481" stroke-linecap="round" stroke-linejoin="round"/>
<path d="M240.706 314.998H203.416V318.12H240.706V314.998Z" fill="white"/>
<path d="M240.706 314.998H203.416V318.12H240.706V314.998Z" stroke="#46515D" stroke-width="0.175481" stroke-linecap="round" stroke-linejoin="round"/>
<path d="M240.706 316.88H203.416V318.125H240.706V316.88Z" fill="white"/>
<path d="M240.706 316.88H203.416V318.125H240.706V316.88Z" stroke="#46515D" stroke-width="0.175481" stroke-linecap="round" stroke-linejoin="round"/>
<path d="M240.704 314.998H239.35V318.12H240.704V314.998Z" fill="white"/>
<path d="M240.704 314.998H239.35V318.12H240.704V314.998Z" stroke="#46515D" stroke-width="0.175481" stroke-linecap="round" stroke-linejoin="round"/>
<path d="M204.764 314.998H203.409V318.12H204.764V314.998Z" fill="white"/>
<path d="M204.764 314.998H203.409V318.12H204.764V314.998Z" stroke="#46515D" stroke-width="0.175481" stroke-linecap="round" stroke-linejoin="round"/>
<path d="M314.409 314.998H277.112V318.12H314.409V314.998Z" fill="white"/>
<path d="M314.409 314.998H277.112V318.12H314.409V314.998Z" stroke="#46515D" stroke-width="0.175481" stroke-linecap="round" stroke-linejoin="round"/>
<path d="M314.409 316.88H277.112V318.125H314.409V316.88Z" fill="white"/>
<path d="M314.409 316.88H277.112V318.125H314.409V316.88Z" stroke="#46515D" stroke-width="0.175481" stroke-linecap="round" stroke-linejoin="round"/>
<path d="M314.407 314.998H313.053V318.12H314.407V314.998Z" fill="white"/>
<path d="M314.407 314.998H313.053V318.12H314.407V314.998Z" stroke="#46515D" stroke-width="0.175481" stroke-linecap="round" stroke-linejoin="round"/>
<path d="M278.467 314.998H277.112V318.12H278.467V314.998Z" fill="white"/>
<path d="M278.467 314.998H277.112V318.12H278.467V314.998Z" stroke="#46515D" stroke-width="0.175481" stroke-linecap="round" stroke-linejoin="round"/>
<path d="M388.139 314.998H350.849V318.12H388.139V314.998Z" fill="white"/>
<path d="M388.139 314.998H350.849V318.12H388.139V314.998Z" stroke="#46515D" stroke-width="0.175481" stroke-linecap="round" stroke-linejoin="round"/>
<path d="M388.139 316.88H350.849V318.125H388.139V316.88Z" fill="white"/>
<path d="M388.139 316.88H350.849V318.125H388.139V316.88Z" stroke="#46515D" stroke-width="0.175481" stroke-linecap="round" stroke-linejoin="round"/>
<path d="M388.144 314.998H386.789V318.12H388.144V314.998Z" fill="white"/>
<path d="M388.144 314.998H386.789V318.12H388.144V314.998Z" stroke="#46515D" stroke-width="0.175481" stroke-linecap="round" stroke-linejoin="round"/>
<path d="M352.203 314.998H350.849V318.12H352.203V314.998Z" fill="white"/>
<path d="M352.203 314.998H350.849V318.12H352.203V314.998Z" stroke="#46515D" stroke-width="0.175481" stroke-linecap="round" stroke-linejoin="round"/>
<path d="M461.517 314.998H424.672V318.12H461.517V314.998Z" fill="white"/>
<path d="M461.517 314.998H424.672V318.12H461.517V314.998Z" stroke="#46515D" stroke-width="0.175481" stroke-linecap="round" stroke-linejoin="round"/>
<path d="M461.517 316.88H424.672V318.125H461.517V316.88Z" fill="white"/>
<path d="M461.517 316.88H424.672V318.125H461.517V316.88Z" stroke="#46515D" stroke-width="0.175481" stroke-linecap="round" stroke-linejoin="round"/>
<path d="M461.515 314.998H460.179V318.12H461.515V314.998Z" fill="white"/>
<path d="M461.515 314.998H460.179V318.12H461.515V314.998Z" stroke="#46515D" stroke-width="0.175481" stroke-linecap="round" stroke-linejoin="round"/>
<path d="M426.008 314.998H424.672V318.12H426.008V314.998Z" fill="white"/>
<path d="M426.008 314.998H424.672V318.12H426.008V314.998Z" stroke="#46515D" stroke-width="0.175481" stroke-linecap="round" stroke-linejoin="round"/>
<path d="M535.379 314.998H498.089V318.12H535.379V314.998Z" fill="white"/>
<path d="M535.379 314.998H498.089V318.12H535.379V314.998Z" stroke="#46515D" stroke-width="0.175481" stroke-linecap="round" stroke-linejoin="round"/>
<path d="M535.379 316.88H498.089V318.125H535.379V316.88Z" fill="white"/>
<path d="M535.379 316.88H498.089V318.125H535.379V316.88Z" stroke="#46515D" stroke-width="0.175481" stroke-linecap="round" stroke-linejoin="round"/>
<path d="M535.377 314.998H534.022V318.12H535.377V314.998Z" fill="white"/>
<path d="M535.377 314.998H534.022V318.12H535.377V314.998Z" stroke="#46515D" stroke-width="0.175481" stroke-linecap="round" stroke-linejoin="round"/>
<path d="M499.443 314.998H498.089V318.12H499.443V314.998Z" fill="white"/>
<path d="M499.443 314.998H498.089V318.12H499.443V314.998Z" stroke="#46515D" stroke-width="0.175481" stroke-linecap="round" stroke-linejoin="round"/>
<path d="M608.902 314.998H571.611V318.12H608.902V314.998Z" fill="white"/>
<path d="M608.902 314.998H571.611V318.12H608.902V314.998Z" stroke="#46515D" stroke-width="0.175481" stroke-linecap="round" stroke-linejoin="round"/>
<path d="M608.902 316.88H571.611V318.125H608.902V316.88Z" fill="white"/>
<path d="M608.902 316.88H571.611V318.125H608.902V316.88Z" stroke="#46515D" stroke-width="0.175481" stroke-linecap="round" stroke-linejoin="round"/>
<path d="M608.906 314.998H607.552V318.12H608.906V314.998Z" fill="white"/>
<path d="M608.906 314.998H607.552V318.12H608.906V314.998Z" stroke="#46515D" stroke-width="0.175481" stroke-linecap="round" stroke-linejoin="round"/>
<path d="M572.966 314.998H571.611V318.12H572.966V314.998Z" fill="white"/>
<path d="M572.966 314.998H571.611V318.12H572.966V314.998Z" stroke="#46515D" stroke-width="0.175481" stroke-linecap="round" stroke-linejoin="round"/>
<mask id="mask37_74_2806" style="mask-type:luminance" maskUnits="userSpaceOnUse" x="0" y="0" width="638" height="324">
<path d="M0 0H337.45V87.2791L319.732 87.213L361.263 162.442L575.609 140.219V156.27H638V324H0V0Z" fill="white"/>
</mask>
<g mask="url(#mask37_74_2806)">
<path d="M360.854 0.221191H333.002V3.34346H360.854V0.221191Z" stroke="#46515D" stroke-width="0.175481" stroke-linecap="round" stroke-linejoin="round"/>
<path d="M360.854 0.221191H333.002V1.46649H360.854V0.221191Z" stroke="#46515D" stroke-width="0.175481" stroke-linecap="round" stroke-linejoin="round"/>
<path d="M551.135 158.849V151.828C555.088 151.828 558.291 154.974 558.291 158.849" stroke="#46515D" stroke-width="0.175481" stroke-linecap="round" stroke-linejoin="round"/>
<path d="M572.603 158.851V144.804C564.702 144.804 558.296 151.091 558.296 158.851" stroke="#46515D" stroke-width="0.175481" stroke-linecap="round" stroke-linejoin="round"/>
<path d="M318.859 131.908H325.973C325.973 135.8 322.789 138.952 318.859 138.952" stroke="#46515D" stroke-width="0.175481" stroke-linecap="round" stroke-linejoin="round"/>
<path d="M318.859 153.048H333.087C333.087 145.263 326.718 138.958 318.859 138.958" stroke="#46515D" stroke-width="0.175481" stroke-linecap="round" stroke-linejoin="round"/>
</g>
<path d="M49.089 310.358H8.15625V315.441H49.089V310.358Z" fill="#46515D"/>
<path d="M122.666 310.358H101.281V315.441H122.666V310.358Z" fill="#46515D"/>
<path d="M269.792 310.358H248.407V315.441H269.792V310.358Z" fill="#46515D"/>
<path d="M343.495 310.358H322.11V315.441H343.495V310.358Z" fill="#46515D"/>
<path d="M213.144 155.973H186.384V167.132H213.144V155.973Z" fill="#46515D"/>
<path d="M638.002 156.267H617.216V164.184H638.002V156.267Z" fill="#46515D"/>
<path d="M196.394 310.358H174.704V315.405H196.394V310.358Z" fill="#46515D"/>
<path d="M13.2532 3.34814H2.50293V7.9383H13.2532V3.34814Z" fill="#46515D"/>
<path d="M42.2425 0H34.2256V6.82207H42.2425V0Z" fill="#46515D"/>
<path d="M78.7836 0H70.7666V6.82207H78.7836V0Z" fill="#46515D"/>
<path d="M115.111 0H107.094V6.82207H115.111V0Z" fill="#46515D"/>
<path d="M151.272 0H143.255V6.82207H151.272V0Z" fill="#46515D"/>
<path d="M187.6 0H179.583V6.82207H187.6V0Z" fill="#46515D"/>
<path d="M224.108 0H216.091V6.82207H224.108V0Z" fill="#46515D"/>
<path d="M260.228 0H252.211V6.82207H260.228V0Z" fill="#46515D"/>
<path d="M296.683 0H288.666V6.82207H296.683V0Z" fill="#46515D"/>
<path d="M332.836 0H324.819V6.82207H332.836V0Z" fill="#46515D"/>
<path d="M81.767 3.34814H70.7666V7.9383H81.767V3.34814Z" fill="#46515D"/>
<path d="M154.512 3.34814H143.255V7.9383H154.512V3.34814Z" fill="#46515D"/>
<path d="M227.268 3.4082H216.091V12.9194H227.268V3.4082Z" fill="#46515D"/>
<path d="M337.451 3.34814H324.693V7.13818H337.451V3.34814Z" fill="#46515D"/>
<path d="M56.7653 311.758H0V320.367H56.7653V311.758Z" fill="#46515D"/>
<path d="M130.353 311.757H93.752V320.366H130.353V311.757Z" fill="#46515D"/>
<path d="M203.422 311.757H166.821V320.366H203.422V311.757Z" fill="#46515D"/>
<path d="M277.292 311.757H240.691V320.366H277.292V311.757Z" fill="#46515D"/>
<path d="M350.922 311.757H314.321V320.366H350.922V311.757Z" fill="#46515D"/>
<path d="M417.138 310.358H395.753V315.441H417.138V310.358Z" fill="#46515D"/>
<path d="M424.745 311.758H388.145V320.367H424.745V311.758Z" fill="#46515D"/>
<path d="M490.661 310.358H469.276V315.441H490.661V310.358Z" fill="#46515D"/>
<path d="M564.297 310.358H542.912V315.441H564.297V310.358Z" fill="#46515D"/>
<path d="M638 310.358H616.615V315.441H638V310.358Z" fill="#46515D"/>
<path d="M498.268 311.757H461.667V320.366H498.268V311.757Z" fill="#46515D"/>
<path d="M571.841 311.757H535.197V320.366H571.841V311.757Z" fill="#46515D"/>
<path d="M361.268 162.44H359.071V239.174H361.268V162.44Z" fill="#46515D"/>
<path d="M336.362 85.2847H318.205V87.2759H336.362V85.2847Z" fill="#46515D"/>
<path d="M319.685 85.2847H317.665V132.059H319.685V85.2847Z" fill="#46515D"/>
<path d="M515.492 206.051H513.473V239.499H515.492V206.051Z" fill="#46515D"/>
<path d="M635.871 156.267H575.609V158.258H635.871V156.267Z" fill="#46515D"/>
<path d="M635.978 156.408V312.804H637.997V234.603V156.408H635.978Z" fill="#46515D"/>
<path d="M86.2585 145.299H75.252V171.637H86.2585V145.299Z" fill="#46515D"/>
<path d="M6.58317 0H0V318.309H6.58317V0Z" fill="#46515D"/>
<path d="M13.0191 145.299H4.25781V171.637H13.0191V145.299Z" fill="#46515D"/>
<path d="M637.997 311.764H608.687V322.16H637.997V311.764Z" fill="#46515D"/>
<path d="M637.998 316.826H627.047V324.003H637.998V316.826Z" fill="#46515D"/>
<path d="M571.89 316.826H553.531V322.15H571.89V316.826Z" fill="#46515D"/>
<path d="M169.361 155.973H134.225V158.265H169.361V155.973Z" fill="#46515D"/>
<path d="M169.36 157.111H166.969V170.707H169.36V157.111Z" fill="#46515D"/>
<path d="M169.361 168.674H134.225V170.708H169.361V168.674Z" fill="#46515D"/>
<path d="M136.391 155.973H134.225V170.002H136.391V155.973Z" fill="#46515D"/>
<path d="M148.801 157.151H146.452V169.694H148.801V157.151Z" fill="#46515D"/>
<path d="M223.619 155.973H211.111V158.265H223.619V155.973Z" fill="#46515D"/>
<path d="M223.621 156.836H221.37V171.87H223.621V156.836Z" fill="#46515D"/>
<path d="M222.825 170.268H211.104V171.868H222.825V170.268Z" fill="#46515D"/>
<path d="M213.149 164.777H211.111V171.335H213.149V164.777Z" fill="#46515D"/>
<path d="M515.499 237.36H359.071V239.496H515.499V237.36Z" fill="#46515D"/>
<path d="M548.49 163.378H539.302V165.363H548.49V163.378Z" fill="#46515D"/>
<path d="M548.491 158.457H546.35V164.629H548.491V158.457Z" fill="#46515D"/>
<path d="M541.443 164.369H539.302V207.828H541.443V164.369Z" fill="#46515D"/>
<path d="M540.374 206.051H514.914V207.819H540.374V206.051Z" fill="#46515D"/>
<path d="M337.45 5.59766H335.278V87.282H337.45V5.59766Z" fill="#46515D"/>
<path d="M361.261 162.44H317.839V164.125H361.261V162.44Z" fill="#46515D"/>
<path d="M319.685 152.913H317.665V164.126H319.685V152.913Z" fill="#46515D"/>
<path d="M13.0222 290.867H3.29688V315.448H13.0222V290.867Z" fill="#46515D"/>
<path d="M13.2574 5.39014H4.61816V12.9221H13.2574V5.39014Z" fill="#46515D"/>
<path d="M81.767 3.80322H70.7666V12.9234H81.767V3.80322Z" fill="#46515D"/>
<path d="M154.512 6.26074H143.255V12.9264H154.512V6.26074Z" fill="#46515D"/>
<path d="M299.898 3.34814H288.672V12.9255H299.898V3.34814Z" fill="#46515D"/>
<path d="M577.8 156.836H575.609V160.278H577.8V156.836Z" fill="#46515D"/>
<path d="M577.803 158.376H572.452V160.368H577.803V158.376Z" fill="#46515D"/>
<path d="M551.288 158.457H547.17V160.364H551.288V158.457Z" fill="#46515D"/>
<path d="M163.202 221.629V221.324L164.548 219.194H164.77V219.667H164.62L163.603 221.276V221.3H165.416V221.629H163.202ZM164.644 222.257V221.536V221.394V219.194H164.997V222.257H164.644ZM166.969 222.299C166.772 222.299 166.596 222.265 166.441 222.197C166.288 222.129 166.165 222.035 166.075 221.914C165.985 221.793 165.936 221.652 165.928 221.491H166.305C166.313 221.59 166.347 221.675 166.407 221.747C166.467 221.818 166.545 221.872 166.642 221.911C166.738 221.95 166.845 221.97 166.963 221.97C167.095 221.97 167.211 221.947 167.313 221.901C167.415 221.855 167.494 221.791 167.552 221.709C167.61 221.628 167.639 221.533 167.639 221.425C167.639 221.313 167.611 221.213 167.555 221.128C167.499 221.041 167.418 220.973 167.31 220.924C167.202 220.875 167.071 220.851 166.915 220.851H166.67V220.522H166.915C167.037 220.522 167.144 220.5 167.235 220.456C167.328 220.412 167.4 220.35 167.452 220.271C167.505 220.191 167.531 220.097 167.531 219.99C167.531 219.886 167.508 219.796 167.463 219.719C167.417 219.642 167.352 219.582 167.268 219.539C167.185 219.497 167.088 219.475 166.975 219.475C166.869 219.475 166.77 219.495 166.676 219.533C166.583 219.571 166.507 219.627 166.449 219.699C166.39 219.771 166.358 219.858 166.353 219.96H165.994C166 219.799 166.048 219.659 166.139 219.538C166.23 219.416 166.348 219.322 166.495 219.254C166.643 219.186 166.805 219.152 166.981 219.152C167.17 219.152 167.333 219.19 167.469 219.267C167.604 219.343 167.708 219.443 167.781 219.568C167.854 219.692 167.89 219.827 167.89 219.972C167.89 220.144 167.845 220.291 167.754 220.413C167.664 220.534 167.542 220.619 167.388 220.666V220.689C167.581 220.721 167.732 220.804 167.841 220.936C167.95 221.068 168.004 221.231 168.004 221.425C168.004 221.592 167.959 221.741 167.868 221.874C167.778 222.006 167.656 222.109 167.5 222.185C167.344 222.261 167.167 222.299 166.969 222.299ZM169.591 222.299C169.465 222.297 169.339 222.273 169.214 222.227C169.088 222.181 168.973 222.104 168.87 221.995C168.766 221.885 168.683 221.737 168.62 221.551C168.557 221.363 168.526 221.128 168.526 220.845C168.526 220.574 168.551 220.334 168.602 220.124C168.653 219.914 168.727 219.737 168.823 219.593C168.92 219.449 169.037 219.339 169.173 219.264C169.311 219.189 169.466 219.152 169.638 219.152C169.81 219.152 169.962 219.186 170.096 219.255C170.231 219.323 170.34 219.418 170.425 219.539C170.51 219.661 170.565 219.801 170.59 219.96H170.225C170.191 219.822 170.125 219.708 170.027 219.617C169.93 219.526 169.8 219.481 169.638 219.481C169.401 219.481 169.214 219.584 169.078 219.791C168.942 219.997 168.874 220.287 168.873 220.66H168.897C168.952 220.575 169.019 220.503 169.096 220.443C169.173 220.382 169.259 220.335 169.353 220.302C169.446 220.269 169.546 220.253 169.65 220.253C169.826 220.253 169.986 220.297 170.132 220.384C170.278 220.471 170.394 220.591 170.482 220.745C170.57 220.897 170.614 221.072 170.614 221.27C170.614 221.459 170.571 221.633 170.486 221.79C170.402 221.947 170.282 222.071 170.129 222.164C169.976 222.256 169.797 222.301 169.591 222.299ZM169.591 221.97C169.716 221.97 169.829 221.938 169.929 221.875C170.029 221.813 170.109 221.728 170.166 221.623C170.225 221.517 170.255 221.399 170.255 221.27C170.255 221.143 170.226 221.028 170.169 220.924C170.113 220.82 170.036 220.736 169.938 220.675C169.84 220.613 169.728 220.582 169.603 220.582C169.508 220.582 169.42 220.601 169.338 220.639C169.256 220.676 169.184 220.726 169.122 220.791C169.062 220.856 169.014 220.93 168.979 221.014C168.944 221.097 168.927 221.184 168.927 221.276C168.927 221.397 168.955 221.511 169.012 221.617C169.07 221.722 169.148 221.808 169.248 221.872C169.349 221.937 169.463 221.97 169.591 221.97ZM171.548 221.838L171.524 222C171.507 222.113 171.481 222.235 171.446 222.365C171.412 222.494 171.377 222.616 171.34 222.731C171.303 222.846 171.273 222.937 171.249 223.005H170.98C170.993 222.941 171.01 222.857 171.031 222.752C171.051 222.647 171.072 222.53 171.093 222.4C171.115 222.272 171.133 222.14 171.147 222.006L171.165 221.838H171.548ZM172.188 222.257L173.558 219.547V219.523H171.978V219.194H173.941V219.541L172.577 222.257H172.188ZM175.39 219.152C175.516 219.153 175.641 219.177 175.767 219.224C175.893 219.271 176.007 219.348 176.111 219.457C176.215 219.565 176.298 219.712 176.361 219.898C176.423 220.085 176.455 220.319 176.455 220.6C176.455 220.872 176.429 221.114 176.377 221.325C176.326 221.535 176.252 221.713 176.156 221.858C176.06 222.002 175.943 222.112 175.806 222.187C175.669 222.261 175.515 222.299 175.342 222.299C175.171 222.299 175.018 222.265 174.883 222.197C174.749 222.128 174.64 222.033 174.554 221.911C174.469 221.789 174.415 221.647 174.391 221.485H174.756C174.789 221.626 174.854 221.742 174.952 221.834C175.051 221.924 175.181 221.97 175.342 221.97C175.578 221.97 175.765 221.866 175.902 221.66C176.039 221.454 176.108 221.162 176.108 220.785H176.084C176.028 220.869 175.962 220.941 175.885 221.002C175.808 221.063 175.723 221.11 175.629 221.143C175.536 221.176 175.436 221.192 175.33 221.192C175.155 221.192 174.994 221.149 174.847 221.062C174.702 220.974 174.585 220.854 174.497 220.701C174.41 220.548 174.367 220.372 174.367 220.175C174.367 219.988 174.409 219.816 174.493 219.661C174.577 219.504 174.696 219.379 174.849 219.287C175.002 219.194 175.183 219.149 175.39 219.152ZM175.39 219.481C175.264 219.481 175.151 219.512 175.051 219.575C174.951 219.637 174.872 219.721 174.813 219.827C174.755 219.931 174.726 220.047 174.726 220.175C174.726 220.303 174.754 220.419 174.81 220.523C174.867 220.627 174.944 220.71 175.042 220.772C175.14 220.833 175.252 220.863 175.378 220.863C175.473 220.863 175.561 220.845 175.643 220.808C175.725 220.77 175.796 220.718 175.857 220.654C175.918 220.588 175.967 220.513 176.002 220.431C176.037 220.347 176.054 220.26 176.054 220.169C176.054 220.049 176.025 219.937 175.967 219.833C175.91 219.728 175.832 219.643 175.731 219.578C175.631 219.513 175.518 219.481 175.39 219.481Z" fill="#46515D"/>
<path d="M160.385 107.357V104.294H160.755V105.658H162.389V104.294H162.76V107.357H162.389V105.987H160.755V107.357H160.385ZM163.46 107.357V104.294H165.309V104.623H163.831V105.658H165.213V105.987H163.831V107.028H165.332V107.357H163.46ZM167.748 104.294V107.357H167.377V104.294H167.748ZM165.678 107.357L166.671 105.76L165.761 104.294H166.21L167.006 105.652H168.124L168.92 104.294H169.369L168.453 105.766L169.447 107.357H169.022L168.19 105.999H166.934L166.096 107.357H165.678ZM169.89 104.294H170.255V106.705H170.285L171.96 104.294H172.319V107.357H171.948V104.952H171.918L170.249 107.357H169.89V104.294ZM172.756 107.357V107.016H172.846C172.973 107.016 173.073 106.975 173.143 106.893C173.214 106.812 173.265 106.679 173.296 106.497C173.328 106.315 173.349 106.073 173.36 105.772L173.414 104.294H175.281V107.357H174.91V104.623H173.767L173.719 105.843C173.707 106.164 173.678 106.438 173.631 106.663C173.584 106.888 173.502 107.06 173.384 107.179C173.267 107.298 173.095 107.357 172.87 107.357H172.756ZM178.564 105.825C178.564 106.149 178.506 106.428 178.389 106.663C178.272 106.898 178.112 107.08 177.909 107.207C177.705 107.335 177.473 107.399 177.212 107.399C176.951 107.399 176.718 107.335 176.515 107.207C176.312 107.08 176.152 106.898 176.035 106.663C175.918 106.428 175.86 106.149 175.86 105.825C175.86 105.502 175.918 105.223 176.035 104.988C176.152 104.753 176.312 104.571 176.515 104.444C176.718 104.316 176.951 104.252 177.212 104.252C177.473 104.252 177.705 104.316 177.909 104.444C178.112 104.571 178.272 104.753 178.389 104.988C178.506 105.223 178.564 105.502 178.564 105.825ZM178.205 105.825C178.205 105.56 178.161 105.336 178.072 105.154C177.984 104.971 177.865 104.833 177.714 104.74C177.565 104.646 177.397 104.599 177.212 104.599C177.026 104.599 176.858 104.646 176.708 104.74C176.558 104.833 176.439 104.971 176.35 105.154C176.263 105.336 176.219 105.56 176.219 105.825C176.219 106.091 176.263 106.315 176.35 106.497C176.439 106.679 176.558 106.818 176.708 106.911C176.858 107.005 177.026 107.052 177.212 107.052C177.397 107.052 177.565 107.005 177.714 106.911C177.865 106.818 177.984 106.679 178.072 106.497C178.161 106.315 178.205 106.091 178.205 105.825ZM179.145 107.357V104.294H180.994V104.623H179.516V105.658H180.898V105.987H179.516V107.028H181.018V107.357H179.145Z" fill="#46515D"/>
<path d="M159.146 112.235V115.298H158.775V112.564H157.231V115.298H156.86V112.235H159.146ZM162.436 113.766C162.436 114.089 162.378 114.369 162.261 114.604C162.144 114.839 161.984 115.021 161.781 115.148C161.577 115.276 161.345 115.34 161.084 115.34C160.823 115.34 160.59 115.276 160.387 115.148C160.184 115.021 160.024 114.839 159.907 114.604C159.79 114.369 159.732 114.089 159.732 113.766C159.732 113.443 159.79 113.164 159.907 112.929C160.024 112.694 160.184 112.512 160.387 112.384C160.59 112.257 160.823 112.193 161.084 112.193C161.345 112.193 161.577 112.257 161.781 112.384C161.984 112.512 162.144 112.694 162.261 112.929C162.378 113.164 162.436 113.443 162.436 113.766ZM162.077 113.766C162.077 113.501 162.033 113.277 161.944 113.095C161.856 112.912 161.737 112.774 161.586 112.681C161.437 112.587 161.269 112.54 161.084 112.54C160.898 112.54 160.73 112.587 160.58 112.681C160.43 112.774 160.311 112.912 160.222 113.095C160.135 113.277 160.091 113.501 160.091 113.766C160.091 114.032 160.135 114.255 160.222 114.438C160.311 114.62 160.43 114.758 160.58 114.852C160.73 114.946 160.898 114.993 161.084 114.993C161.269 114.993 161.437 114.946 161.586 114.852C161.737 114.758 161.856 114.62 161.944 114.438C162.033 114.255 162.077 114.032 162.077 113.766ZM163.017 112.235H163.46L164.501 114.777H164.537L165.578 112.235H166.021V115.298H165.674V112.971H165.644L164.687 115.298H164.352L163.394 112.971H163.364V115.298H163.017V112.235ZM166.722 115.298V112.235H168.571V112.564H167.093V113.599H168.475V113.928H167.093V114.969H168.595V115.298H166.722ZM172.762 114.969L172.721 116.022H172.356V115.298H172.063V114.969H172.762ZM169.197 112.235H169.568V114.957H170.645V112.235H171.016V114.957H172.092V112.235H172.463V115.298H169.197V112.235ZM173.284 115.298V112.235H175.133V112.564H173.655V113.599H175.037V113.928H173.655V114.969H175.157V115.298H173.284ZM175.759 115.298V112.235H176.13V113.599H177.763V112.235H178.134V115.298H177.763V113.928H176.13V115.298H175.759ZM178.835 112.235H179.199V114.646H179.229L180.904 112.235H181.263V115.298H180.892V112.893H180.863L179.193 115.298H178.835V112.235ZM181.963 115.298V112.235H183.812V112.564H182.334V113.599H183.716V113.928H182.334V114.969H183.836V115.298H181.963Z" fill="#46515D"/>
<path d="M164.027 121.708C164.027 121.331 164.076 120.984 164.173 120.668C164.272 120.351 164.413 120.06 164.595 119.793H164.906C164.834 119.892 164.767 120.014 164.704 120.158C164.642 120.302 164.588 120.46 164.541 120.632C164.494 120.804 164.458 120.981 164.431 121.165C164.405 121.348 164.392 121.529 164.392 121.708C164.392 121.945 164.415 122.186 164.461 122.43C164.506 122.674 164.568 122.901 164.646 123.111C164.724 123.32 164.81 123.491 164.906 123.622H164.595C164.413 123.356 164.272 123.065 164.173 122.749C164.076 122.432 164.027 122.085 164.027 121.708ZM168.017 121.708C168.017 122.031 167.959 122.31 167.842 122.545C167.725 122.781 167.565 122.962 167.362 123.09C167.159 123.217 166.926 123.281 166.665 123.281C166.404 123.281 166.172 123.217 165.968 123.09C165.765 122.962 165.605 122.781 165.488 122.545C165.371 122.31 165.313 122.031 165.313 121.708C165.313 121.385 165.371 121.106 165.488 120.87C165.605 120.635 165.765 120.454 165.968 120.326C166.172 120.198 166.404 120.134 166.665 120.134C166.926 120.134 167.159 120.198 167.362 120.326C167.565 120.454 167.725 120.635 167.842 120.87C167.959 121.106 168.017 121.385 168.017 121.708ZM167.658 121.708C167.658 121.443 167.614 121.219 167.525 121.036C167.437 120.854 167.318 120.716 167.168 120.622C167.018 120.528 166.851 120.481 166.665 120.481C166.48 120.481 166.312 120.528 166.161 120.622C166.012 120.716 165.892 120.854 165.804 121.036C165.716 121.219 165.672 121.443 165.672 121.708C165.672 121.973 165.716 122.197 165.804 122.379C165.892 122.562 166.012 122.7 166.161 122.794C166.312 122.887 166.48 122.934 166.665 122.934C166.851 122.934 167.018 122.887 167.168 122.794C167.318 122.7 167.437 122.562 167.525 122.379C167.614 122.197 167.658 121.973 167.658 121.708ZM169.652 120.541H170.136C170.363 120.541 170.565 120.592 170.742 120.694C170.918 120.795 171.057 120.937 171.158 121.119C171.258 121.3 171.309 121.51 171.309 121.75C171.309 121.989 171.258 122.2 171.158 122.382C171.057 122.565 170.918 122.707 170.742 122.81C170.565 122.913 170.363 122.964 170.136 122.964H169.652C169.424 122.964 169.222 122.913 169.046 122.812C168.869 122.71 168.731 122.568 168.63 122.387C168.529 122.205 168.479 121.995 168.479 121.756C168.479 121.516 168.529 121.305 168.63 121.123C168.731 120.941 168.869 120.798 169.046 120.695C169.222 120.593 169.424 120.541 169.652 120.541ZM169.652 120.87C169.478 120.87 169.331 120.907 169.212 120.979C169.093 121.052 169.003 121.155 168.941 121.288C168.88 121.42 168.85 121.576 168.85 121.756C168.85 121.933 168.88 122.088 168.941 122.219C169.003 122.351 169.093 122.453 169.212 122.526C169.331 122.599 169.478 122.635 169.652 122.635H170.136C170.31 122.635 170.456 122.599 170.574 122.526C170.694 122.453 170.784 122.35 170.845 122.218C170.907 122.085 170.938 121.929 170.938 121.75C170.938 121.572 170.907 121.418 170.845 121.286C170.784 121.154 170.694 121.052 170.574 120.979C170.456 120.907 170.31 120.87 170.136 120.87H169.652ZM170.082 120.122V123.365H169.711V120.122H170.082ZM171.888 120.176H172.253V122.587H172.283L173.958 120.176H174.317V123.239H173.946V120.834H173.916L172.247 123.239H171.888V120.176ZM177.482 121.133H177.111C177.089 121.027 177.05 120.933 176.995 120.852C176.942 120.772 176.876 120.704 176.798 120.649C176.721 120.593 176.636 120.551 176.542 120.523C176.449 120.495 176.351 120.481 176.249 120.481C176.064 120.481 175.896 120.528 175.745 120.622C175.596 120.716 175.476 120.854 175.388 121.036C175.3 121.219 175.256 121.443 175.256 121.708C175.256 121.973 175.3 122.197 175.388 122.379C175.476 122.562 175.596 122.7 175.745 122.794C175.896 122.887 176.064 122.934 176.249 122.934C176.351 122.934 176.449 122.92 176.542 122.892C176.636 122.864 176.721 122.823 176.798 122.768C176.876 122.712 176.942 122.644 176.995 122.563C177.05 122.482 177.089 122.388 177.111 122.282H177.482C177.454 122.439 177.403 122.579 177.329 122.702C177.255 122.826 177.163 122.931 177.054 123.018C176.944 123.104 176.821 123.169 176.684 123.214C176.549 123.259 176.404 123.281 176.249 123.281C175.988 123.281 175.756 123.217 175.552 123.09C175.349 122.962 175.189 122.781 175.072 122.545C174.955 122.31 174.897 122.031 174.897 121.708C174.897 121.385 174.955 121.106 175.072 120.87C175.189 120.635 175.349 120.454 175.552 120.326C175.756 120.198 175.988 120.134 176.249 120.134C176.404 120.134 176.549 120.157 176.684 120.202C176.821 120.247 176.944 120.312 177.054 120.399C177.163 120.485 177.255 120.59 177.329 120.713C177.403 120.836 177.454 120.976 177.482 121.133ZM178.745 121.708C178.745 122.085 178.695 122.432 178.597 122.749C178.499 123.065 178.359 123.356 178.176 123.622H177.865C177.937 123.523 178.004 123.402 178.066 123.257C178.128 123.114 178.183 122.956 178.23 122.785C178.277 122.612 178.313 122.434 178.339 122.251C178.366 122.066 178.38 121.885 178.38 121.708C178.38 121.47 178.357 121.23 178.311 120.985C178.265 120.741 178.203 120.514 178.125 120.305C178.048 120.096 177.961 119.925 177.865 119.793H178.176C178.359 120.06 178.499 120.351 178.597 120.668C178.695 120.984 178.745 121.331 178.745 121.708Z" fill="#46515D"/>
<path d="M165.164 91.7498V91.4447L166.51 89.315H166.732V89.7876H166.582L165.565 91.3968V91.4208H167.378V91.7498H165.164ZM166.606 92.3779V91.6571V91.515V89.315H166.959V92.3779H166.606ZM168.931 92.4198C168.734 92.4198 168.558 92.3859 168.403 92.3181C168.249 92.2503 168.127 92.1561 168.037 92.0354C167.947 91.9138 167.898 91.7727 167.89 91.6122H168.267C168.275 91.7109 168.309 91.7962 168.369 91.8679C168.428 91.9387 168.507 91.9936 168.603 92.0325C168.7 92.0713 168.807 92.0908 168.925 92.0908C169.057 92.0908 169.173 92.0678 169.275 92.022C169.377 91.9761 169.456 91.9123 169.514 91.8306C169.572 91.7488 169.601 91.6541 169.601 91.5464C169.601 91.4337 169.573 91.3345 169.517 91.2488C169.461 91.162 169.38 91.0942 169.272 91.0454C169.164 90.9965 169.033 90.9721 168.877 90.9721H168.632V90.6431H168.877C168.999 90.6431 169.105 90.6211 169.197 90.5773C169.29 90.5334 169.362 90.4716 169.414 90.3918C169.467 90.312 169.493 90.2183 169.493 90.1106C169.493 90.0069 169.47 89.9167 169.424 89.8399C169.379 89.7632 169.314 89.7033 169.23 89.6605C169.147 89.6176 169.05 89.5962 168.937 89.5962C168.831 89.5962 168.732 89.6156 168.638 89.6545C168.545 89.6924 168.469 89.7477 168.41 89.8205C168.352 89.8923 168.32 89.979 168.315 90.0807H167.956C167.962 89.9202 168.01 89.7796 168.101 89.659C168.192 89.5373 168.31 89.4426 168.457 89.3748C168.604 89.307 168.766 89.2731 168.943 89.2731C169.132 89.2731 169.295 89.3115 169.43 89.3883C169.566 89.4641 169.67 89.5643 169.743 89.6889C169.816 89.8135 169.852 89.9481 169.852 90.0927C169.852 90.2652 169.807 90.4122 169.716 90.5339C169.626 90.6555 169.504 90.7398 169.35 90.7866V90.8106C169.543 90.8425 169.694 90.9247 169.803 91.0573C169.912 91.1889 169.966 91.352 169.966 91.5464C169.966 91.7129 169.921 91.8625 169.83 91.9951C169.74 92.1267 169.617 92.2304 169.462 92.3061C169.306 92.3819 169.129 92.4198 168.931 92.4198ZM171.552 92.4198C171.427 92.4178 171.301 92.3939 171.176 92.348C171.05 92.3022 170.935 92.2249 170.832 92.1162C170.728 92.0065 170.645 91.8585 170.582 91.672C170.519 91.4846 170.488 91.2493 170.488 90.9661C170.488 90.6949 170.513 90.4546 170.564 90.2452C170.615 90.0349 170.689 89.8579 170.785 89.7143C170.882 89.5697 170.999 89.4601 171.135 89.3853C171.273 89.3105 171.428 89.2731 171.6 89.2731C171.772 89.2731 171.924 89.3075 172.058 89.3763C172.193 89.4441 172.302 89.5388 172.387 89.6605C172.472 89.7821 172.527 89.9222 172.551 90.0807H172.187C172.153 89.9431 172.087 89.829 171.989 89.7382C171.891 89.6475 171.762 89.6021 171.6 89.6021C171.363 89.6021 171.176 89.7053 171.039 89.9117C170.904 90.1181 170.836 90.4078 170.835 90.7807H170.859C170.914 90.6959 170.981 90.6236 171.057 90.5638C171.135 90.503 171.221 90.4561 171.315 90.4232C171.408 90.3903 171.508 90.3739 171.612 90.3739C171.788 90.3739 171.948 90.4177 172.094 90.5055C172.239 90.5922 172.356 90.7124 172.444 90.8659C172.532 91.0185 172.575 91.1934 172.575 91.3909C172.575 91.5803 172.533 91.7538 172.448 91.9113C172.364 92.0678 172.244 92.1925 172.091 92.2852C171.938 92.3769 171.759 92.4218 171.552 92.4198ZM171.552 92.0908C171.678 92.0908 171.791 92.0594 171.89 91.9966C171.991 91.9337 172.07 91.8495 172.128 91.7438C172.187 91.6381 172.216 91.5205 172.216 91.3909C172.216 91.2642 172.188 91.1491 172.131 91.0454C172.075 90.9407 171.998 90.8574 171.899 90.7956C171.802 90.7338 171.69 90.7029 171.564 90.7029C171.47 90.7029 171.381 90.7218 171.3 90.7597C171.218 90.7966 171.146 90.8475 171.084 90.9123C171.024 90.9771 170.976 91.0514 170.941 91.1351C170.906 91.2179 170.888 91.3051 170.888 91.3968C170.888 91.5185 170.917 91.6321 170.974 91.7378C171.031 91.8435 171.11 91.9288 171.21 91.9936C171.311 92.0584 171.425 92.0908 171.552 92.0908ZM173.51 91.9592L173.486 92.1207C173.469 92.2344 173.443 92.356 173.408 92.4856C173.374 92.6152 173.339 92.7374 173.302 92.852C173.265 92.9667 173.235 93.0579 173.211 93.1257H172.942C172.955 93.0619 172.972 92.9777 172.992 92.873C173.013 92.7683 173.034 92.6511 173.055 92.5215C173.077 92.3929 173.095 92.2613 173.109 92.1267L173.127 91.9592H173.51ZM174.15 92.3779L175.52 89.668V89.644H173.94V89.315H175.903V89.662L174.539 92.3779H174.15ZM177.352 89.2731C177.478 89.2741 177.603 89.298 177.729 89.3449C177.854 89.3918 177.969 89.4695 178.073 89.5782C178.177 89.6859 178.26 89.833 178.323 90.0194C178.385 90.2059 178.417 90.4397 178.417 90.7208C178.417 90.993 178.391 91.2348 178.339 91.4462C178.288 91.6566 178.214 91.834 178.118 91.9786C178.022 92.1232 177.905 92.2329 177.768 92.3076C177.631 92.3824 177.477 92.4198 177.304 92.4198C177.133 92.4198 176.98 92.3859 176.845 92.3181C176.711 92.2493 176.602 92.1541 176.516 92.0325C176.431 91.9098 176.377 91.7677 176.353 91.6062H176.718C176.751 91.7468 176.816 91.863 176.914 91.9547C177.012 92.0454 177.143 92.0908 177.304 92.0908C177.54 92.0908 177.727 91.9876 177.863 91.7812C178.001 91.5748 178.07 91.2832 178.07 90.9063H178.046C177.99 90.99 177.924 91.0623 177.847 91.1231C177.77 91.184 177.685 91.2308 177.591 91.2637C177.498 91.2966 177.398 91.3131 177.292 91.3131C177.117 91.3131 176.956 91.2697 176.809 91.183C176.663 91.0952 176.547 90.9751 176.459 90.8225C176.372 90.669 176.329 90.4935 176.329 90.2961C176.329 90.1086 176.371 89.9372 176.455 89.7816C176.539 89.6251 176.658 89.5004 176.811 89.4077C176.964 89.315 177.145 89.2701 177.352 89.2731ZM177.352 89.6021C177.226 89.6021 177.113 89.6336 177.012 89.6964C176.913 89.7582 176.833 89.8419 176.775 89.9476C176.717 90.0523 176.688 90.1685 176.688 90.2961C176.688 90.4237 176.716 90.5399 176.772 90.6446C176.828 90.7483 176.906 90.831 177.003 90.8928C177.102 90.9536 177.214 90.9841 177.34 90.9841C177.435 90.9841 177.523 90.9656 177.605 90.9287C177.686 90.8908 177.758 90.8395 177.819 90.7747C177.88 90.7089 177.929 90.6346 177.964 90.5518C177.999 90.4681 178.016 90.3808 178.016 90.2901C178.016 90.1705 177.987 90.0583 177.929 89.9536C177.872 89.8489 177.794 89.7642 177.693 89.6994C177.593 89.6346 177.48 89.6021 177.352 89.6021Z" fill="#46515D"/>
<path d="M172.458 80.4216C172.584 80.4226 172.709 80.4465 172.835 80.4933C172.961 80.5402 173.075 80.618 173.179 80.7267C173.283 80.8343 173.366 80.9814 173.429 81.1678C173.492 81.3543 173.523 81.5881 173.523 81.8693C173.523 82.1415 173.497 82.3833 173.445 82.5946C173.394 82.805 173.321 82.9825 173.224 83.127C173.128 83.2716 173.012 83.3813 172.874 83.4561C172.737 83.5309 172.583 83.5682 172.41 83.5682C172.239 83.5682 172.086 83.5343 171.951 83.4665C171.818 83.3977 171.708 83.3025 171.622 83.1809C171.537 83.0583 171.483 82.9162 171.459 82.7547H171.824C171.857 82.8952 171.922 83.0114 172.02 83.1031C172.119 83.1939 172.249 83.2392 172.41 83.2392C172.647 83.2392 172.833 83.136 172.97 82.9296C173.107 82.7232 173.176 82.4316 173.176 82.0547H173.152C173.096 82.1385 173.03 82.2108 172.953 82.2716C172.876 82.3324 172.791 82.3793 172.697 82.4122C172.604 82.4451 172.504 82.4615 172.398 82.4615C172.223 82.4615 172.062 82.4181 171.915 82.3314C171.77 82.2437 171.653 82.1235 171.565 81.971C171.479 81.8174 171.435 81.6419 171.435 81.4445C171.435 81.2571 171.477 81.0856 171.561 80.9301C171.646 80.7735 171.764 80.6489 171.917 80.5562C172.07 80.4634 172.251 80.4186 172.458 80.4216ZM172.458 80.7506C172.333 80.7506 172.219 80.782 172.119 80.8448C172.019 80.9066 171.94 80.9904 171.881 81.0961C171.823 81.2008 171.794 81.3169 171.794 81.4445C171.794 81.5722 171.822 81.6883 171.878 81.793C171.935 81.8967 172.012 81.9794 172.11 82.0413C172.208 82.1021 172.321 82.1325 172.446 82.1325C172.541 82.1325 172.629 82.114 172.711 82.0772C172.793 82.0393 172.864 81.9879 172.925 81.9231C172.987 81.8573 173.035 81.783 173.07 81.7003C173.105 81.6165 173.122 81.5293 173.122 81.4385C173.122 81.3189 173.093 81.2067 173.035 81.102C172.979 80.9974 172.9 80.9126 172.799 80.8478C172.699 80.783 172.586 80.7506 172.458 80.7506Z" fill="#46515D"/>
<path d="M185.355 89.2554H160.12V97.7799H185.355V89.2554Z" stroke="#46515D" stroke-width="0.350961" stroke-miterlimit="10"/>
<path d="M185.355 79.8076H160.12V89.2346H185.355V79.8076Z" stroke="#46515D" stroke-width="0.350961" stroke-miterlimit="10"/>
</g>
<defs>
<clipPath id="clip0_74_2806">
<rect width="638" height="324" fill="white"/>
</clipPath>
</defs>
</svg>
