<svg width="256" height="24" viewBox="0 0 256 24" fill="none" xmlns="http://www.w3.org/2000/svg">
<g clip-path="url(#clip0_28_3378)">
<path d="M148.251 12.6067V23.9722H146.532V12.6067H142.113V11.936H152.673V12.6067H148.251Z" fill="black"/>
<path d="M161.142 20.3789H155.329L153.731 23.9723H152.854L158.15 11.9361H159.097L164.719 23.9723H162.776L161.142 20.3789ZM155.638 19.7082H160.849L158.235 13.912L155.638 19.7082Z" fill="black"/>
<path d="M165.393 23.9722V11.936H173.319V12.6067H167.112V23.9722H165.393Z" fill="black"/>
<path d="M175.193 11.936H176.913V22.2199L184.188 11.936H185.563V23.9755H183.843V13.7081L176.571 23.9755H175.193V11.936Z" fill="black"/>
<path d="M198.131 23.9755H196.412V12.61H191.888L191.233 18.8697C190.803 22.9793 190.218 24.1136 188.741 24.1136C187.811 24.1136 187.107 23.6664 187.107 23.6664L187.486 22.5651C187.486 22.5651 188.002 22.8577 188.518 22.8577C189.412 22.8577 189.997 21.8254 190.29 19.09L191.03 11.936H198.131V23.9722V23.9755Z" fill="black"/>
<path d="M201.088 11.936H202.807V16.9234H205.197C207.982 16.9234 209.685 18.2122 209.685 20.4478C209.685 22.6834 207.966 23.9722 205.197 23.9722H201.088V11.936ZM204.767 23.3015C206.624 23.3015 207.949 22.1837 207.949 20.4478C207.949 18.7119 206.641 17.5941 204.767 17.5941H202.807V23.3048H204.767V23.3015Z" fill="black"/>
<path d="M222.444 20.3389C221.964 22.8516 219.916 23.9999 217.249 23.9999C213.107 23.9999 211.111 21.2678 211.111 17.9261C211.111 14.5843 213.192 11.9361 217.095 11.9361C219.692 11.9361 221.908 13.049 222.289 15.6488H220.57C220.33 13.7425 219.005 12.5458 217.026 12.5458C214.087 12.5458 212.9 15.2617 212.9 17.9454C212.9 20.7969 214.274 23.3935 217.131 23.3935C218.972 23.3935 220.399 22.3645 220.724 20.3389H222.444Z" fill="black"/>
<path d="M233.981 23.9722H231.798L227.153 18.2484H226.259V23.9722H224.592V11.936H226.259V17.5777H227.222L232.038 11.936H233.242L228.356 17.4725L233.981 23.9722Z" fill="black"/>
<path d="M242.646 20.3788H236.833L235.235 23.9722H234.357L239.654 11.936H240.601L246.223 23.9722H244.28L242.646 20.3788ZM237.142 19.7081H242.353L239.739 13.9119L237.142 19.7081Z" fill="black"/>
<path d="M255.781 23.9723H254.061V18.6923H251.878L248.647 23.9723H246.789L250.281 18.5739C248.407 18.2123 247.236 17.0452 247.236 15.3224C247.236 13.2084 248.992 11.9361 251.638 11.9361H255.781V23.9723ZM252.066 12.6068C250.208 12.6068 249.005 13.5865 249.005 15.3224C249.005 17.0583 250.192 18.0216 252.066 18.0216H254.061V12.6035H252.066V12.6068Z" fill="black"/>
<path d="M34.8587 1.6687L42.9858 23.9999H37.7847L35.9962 18.8422H27.1195L25.3639 23.9999H20.291L28.3885 1.6687H34.8587ZM28.6483 14.4451H34.4675L31.5414 6.00609L28.6483 14.4451Z" fill="black"/>
<path d="M53.49 23.9999V21.5251C51.9284 21.5251 50.4818 21.3451 49.1503 20.9819C47.8188 20.6188 46.6648 20.0756 45.6884 19.3524C44.7119 18.6292 43.9492 17.7076 43.3969 16.5908C42.8445 15.4739 42.5684 14.1709 42.5684 12.6817C42.5684 11.1926 42.8511 9.90177 43.4133 8.80322C43.9755 7.70771 44.7415 6.80751 45.7048 6.1026C46.6681 5.39769 47.8221 4.87588 49.1667 4.5341C50.5114 4.19233 51.9514 4.02144 53.49 4.02144V1.6687H58.3985V4.02144H58.4643C60.0259 4.02144 61.4725 4.19843 62.804 4.54936C64.1388 4.90029 65.2796 5.43431 66.233 6.14837C67.1864 6.86243 67.9327 7.76264 68.4752 8.84899C69.0177 9.93534 69.2873 11.2139 69.2873 12.6817C69.2873 14.1495 69.0144 15.4739 68.4752 16.5908C67.9327 17.7076 67.1864 18.6261 66.233 19.3524C65.2796 20.0756 64.1355 20.6188 62.804 20.9819C61.4725 21.3451 60.0259 21.5251 58.4643 21.5251H58.3985V23.9999H53.49ZM53.6182 17.6619V7.8847C52.793 7.8847 52.0138 7.97015 51.2774 8.14103C50.541 8.31192 49.8966 8.58961 49.3442 8.97105C48.7919 9.3525 48.3514 9.84685 48.0292 10.4511C47.7037 11.0553 47.5426 11.7998 47.5426 12.6848C47.5426 13.5697 47.7037 14.2991 48.0292 14.9338C48.3547 15.5685 48.7919 16.0873 49.3442 16.487C49.8966 16.8898 50.541 17.1858 51.2774 17.3781C52.0138 17.5703 52.793 17.6649 53.6182 17.6649M58.3327 7.88775H58.267V17.6649C59.0922 17.6649 59.8714 17.5703 60.6078 17.3781C61.3443 17.1858 61.9853 16.8898 62.5245 16.487C63.067 16.0842 63.501 15.5654 63.8232 14.9338C64.1486 14.2991 64.3097 13.5514 64.3097 12.6848C64.3097 11.8181 64.1519 11.0522 63.8396 10.4358C63.524 9.82243 63.0966 9.33114 62.5541 8.9558C62.0117 8.58351 61.3771 8.31192 60.6538 8.14103C59.9273 7.97015 59.1514 7.8847 58.3295 7.8847" fill="black"/>
<path d="M76.929 23.9999H71.9219V1.6687H76.8008V16.8406L86.9433 1.6687H92.0161V23.9999H87.1372V8.82797L76.929 23.9999Z" fill="black"/>
<path d="M4.39233 14.6382V1.67209H0C0.108493 7.37918 0.216986 13.0863 4.39233 14.6348" fill="#C49D76"/>
<path d="M20.117 1.67208H15.7247C15.4551 5.71642 16.3197 10.9264 15.294 14.1948C13.5581 10.7618 12.2036 6.93577 12.2562 1.67208H7.86385C7.91645 5.05132 8.35042 8.04091 9.16577 10.5938C5.20741 12.532 4.77344 18.0711 4.77344 23.9999H9.16577C9.43536 19.8447 8.56741 14.4702 9.59974 11.0372C11.2797 14.6953 12.6901 18.5717 12.6343 23.9999H17.0299C17.0299 20.7315 16.4874 18.014 15.728 15.5216C18.9828 12.6966 20.4984 8.15176 20.1203 1.66872" fill="#C49D76"/>
<path d="M106.743 15.4148C109.686 12.7409 110.689 10.919 110.689 8.30745C110.689 5.69586 109.117 4.12301 106.441 4.12301C103.765 4.12301 102.091 5.66309 102.091 8.05514C102.091 8.62202 102.193 9.28065 102.361 10.0671L99.3493 9.782C99.1817 9.15285 99.1159 8.58597 99.1159 8.02237C99.1159 4.15577 101.927 1.6687 106.609 1.6687C111.29 1.6687 113.835 4.02798 113.835 8.2714C113.835 11.3548 112.194 14.0287 108.617 17.1416C106.809 18.7112 105.172 19.9728 102.897 21.4506H114.104V23.9999H98.8496V21.6734C100.756 20.3529 103.768 18.0886 106.743 15.4148Z" fill="black"/>
<path d="M116.906 1.66872H125.168C131.425 1.66872 133.062 4.97171 133.062 7.61279C133.062 9.71975 131.79 11.7317 129.08 12.4559C131.924 12.9277 133.733 14.8774 133.733 17.8658C133.733 20.8542 131.891 23.9999 125.872 23.9999H116.906V1.66872ZM125.168 11.3549C129.248 11.3549 129.919 9.37241 129.919 7.83233C129.919 6.0727 129.015 4.18528 125.168 4.18528H120.082V11.3549H125.168ZM125.704 21.4801C129.416 21.4801 130.586 19.5927 130.586 17.5807C130.586 15.5688 129.281 13.8681 126.036 13.8681H120.082V21.4801H125.701H125.704Z" fill="black"/>
</g>
<defs>
<clipPath id="clip0_28_3378">
<rect width="255.781" height="24" fill="white"/>
</clipPath>
</defs>
</svg>
