<svg width="98" height="14" viewBox="0 0 98 14" fill="none" xmlns="http://www.w3.org/2000/svg">
<path d="M15.8131 10.8818L16.5405 8.32765H16.5603L17.2338 10.8818H15.8103H15.8131ZM12.6406 13.843H14.9698L15.3066 12.6585H17.698L18.0149 13.843H20.4177L17.6782 5.55176H15.4113L12.6406 13.843Z" fill="white"/>
<path d="M20.9297 13.843H23.2475V10.6853H26.2502V8.70937H23.2475V7.67646H26.7455V5.55176H20.9297V13.843Z" fill="white"/>
<path d="M29.8881 5.55176H27.5703V13.843H29.8881V5.55176Z" fill="white"/>
<path d="M2.79046 8.02734V0H0C0.0594317 3.53933 0.147169 7.05059 2.79046 8.02734Z" fill="#2AABEE"/>
<path d="M12.8341 0.00280951H10.0436C9.85967 2.49522 10.4144 5.72019 9.76628 7.75228C8.64274 5.63598 7.79089 3.25304 7.81353 0.00280951H5.02307C5.07118 2.07701 5.32588 3.94631 5.86077 5.53774C3.342 6.72781 3.0788 10.1577 3.07031 13.8402H5.86077C6.04472 11.2551 5.49003 7.93752 6.14095 5.8128C7.22487 8.05821 8.12201 10.4917 8.09371 13.8402H10.8842C10.887 11.8081 10.5332 10.1324 10.0465 8.5803C12.0926 6.82888 13.0633 4.00806 12.8369 0L12.8341 0.00280951Z" fill="#2AABEE"/>
<path d="M33.7584 5.56238C34.8366 5.59325 35.6517 5.94688 36.1979 6.62331C36.7441 7.29974 37.0186 8.32423 37.0186 9.69955C37.0186 11.0749 36.7441 12.1021 36.1979 12.7758C35.6517 13.4522 34.8395 13.8058 33.7584 13.8367H31.3047V5.55957H33.7584V5.56238ZM33.4188 13.1659C33.9282 13.1659 34.3668 13.1013 34.7347 12.975C35.1027 12.8487 35.4055 12.6438 35.6432 12.366C35.8809 12.0881 36.0564 11.7288 36.1696 11.2882C36.2828 10.8475 36.3394 10.3198 36.3394 9.69955C36.3394 9.07925 36.2828 8.55157 36.1696 8.11091C36.0564 7.67025 35.8809 7.31099 35.6432 7.03312C35.4055 6.75525 35.1027 6.55315 34.7347 6.42404C34.3668 6.29774 33.9282 6.23317 33.4188 6.23317H31.9782V13.1659H33.4188Z" fill="white"/>
<path d="M42.5825 5.5625V6.2361H38.36V9.22531H42.3136V9.89894H38.36V13.1688H42.6306V13.8425H37.6836V5.56528H42.5825V5.5625Z" fill="white"/>
<path d="M43.8996 5.5625L46.2033 12.9695H46.2231L48.507 5.5625H49.223L46.591 13.8396H45.8071L43.1836 5.5625H43.8996Z" fill="white"/>
<path d="M54.5668 5.5625V6.2361H50.3444V9.22531H54.298V9.89894H50.3444V13.1688H54.6149V13.8425H49.668V5.56528H54.5668V5.5625Z" fill="white"/>
<path d="M55.692 5.5625V13.166H59.6654V13.8396H55.0156V5.5625H55.692Z" fill="white"/>
<path d="M59.3891 8.06581C59.5278 7.54937 59.7372 7.08906 60.0146 6.6933C60.2919 6.29474 60.6428 5.97757 61.0617 5.7418C61.4834 5.50604 61.9702 5.38818 62.5277 5.38818C63.0852 5.38818 63.572 5.50604 63.988 5.7418C64.404 5.97757 64.7521 6.29474 65.0323 6.6933C65.3096 7.09186 65.5191 7.54937 65.6577 8.06581C65.7964 8.58226 65.8672 9.1296 65.8672 9.69937C65.8672 10.2691 65.7964 10.8164 65.6577 11.3329C65.5191 11.8493 65.3096 12.3068 65.0323 12.6998C64.7549 13.0927 64.4068 13.4099 63.988 13.6457C63.572 13.8814 63.0852 13.9993 62.5277 13.9993C61.9702 13.9993 61.4834 13.8814 61.0617 13.6457C60.64 13.4099 60.2919 13.0955 60.0146 12.6998C59.7372 12.3068 59.5278 11.8493 59.3891 11.3329C59.2504 10.8164 59.1797 10.2691 59.1797 9.69937C59.1797 9.1296 59.2504 8.58226 59.3891 8.06581ZM60.0089 11.027C60.1108 11.4648 60.2693 11.8549 60.4844 12.1974C60.6995 12.5426 60.9768 12.8177 61.3136 13.0254C61.6504 13.2331 62.0551 13.3369 62.5248 13.3369C62.9946 13.3369 63.3965 13.2331 63.7305 13.0254C64.0644 12.8177 64.3389 12.5398 64.554 12.1974C64.7691 11.8549 64.9276 11.462 65.0295 11.027C65.1314 10.5919 65.1823 10.1485 65.1823 9.69937C65.1823 9.25029 65.1314 8.7984 65.0295 8.36616C64.9276 7.93392 64.7691 7.54658 64.554 7.20134C64.3389 6.85892 64.0644 6.58103 63.7305 6.37333C63.3965 6.16563 62.9946 6.06178 62.5248 6.06178C62.0551 6.06178 61.6504 6.16563 61.3136 6.37333C60.9768 6.58103 60.6995 6.85892 60.4844 7.20134C60.2693 7.54658 60.1108 7.93392 60.0089 8.36616C59.907 8.7984 59.8561 9.24467 59.8561 9.69937C59.8561 10.1541 59.907 10.5891 60.0089 11.027Z" fill="white"/>
<path d="M69.646 5.56238C69.9629 5.56238 70.2516 5.61569 70.5091 5.71954C70.7667 5.82339 70.9903 5.97777 71.1742 6.18266C71.3582 6.38756 71.5025 6.63737 71.6016 6.92927C71.7006 7.22398 71.7515 7.55516 71.7515 7.92565C71.7515 8.29615 71.7006 8.63017 71.6016 8.92207C71.5025 9.21678 71.361 9.46378 71.1742 9.66868C70.9874 9.87357 70.7667 10.0279 70.5091 10.1318C70.2516 10.2356 69.9629 10.289 69.646 10.289H67.1725V13.8367H66.4961V5.55957H69.646V5.56238ZM69.496 9.61814C69.9658 9.61814 70.3478 9.47781 70.6393 9.19994C70.9308 8.92207 71.0752 8.49823 71.0752 7.92565C71.0752 7.35307 70.9308 6.92928 70.6393 6.65141C70.3478 6.37354 69.9658 6.23317 69.496 6.23317H67.1725V9.61814H69.496Z" fill="white"/>
<path d="M73.548 5.5625L76.0017 12.818L78.4469 5.5625H79.4403V13.8396H78.7639V6.68798H78.7441L76.3215 13.8396H75.6848L73.2509 6.68798H73.2311V13.8396H72.5547V5.5625H73.548Z" fill="white"/>
<path d="M85.6996 5.5625V6.2361H81.4772V9.22531H85.4308V9.89894H81.4772V13.1688H85.7478V13.8425H80.8008V5.56528H85.6996V5.5625Z" fill="white"/>
<path d="M87.0916 5.5625L91.2235 12.5626H91.2433V5.5625H91.9197V13.8396H91.1641L87.0321 6.83956H87.0123V13.8396H86.3359V5.5625H87.0916Z" fill="white"/>
<path d="M97.9977 5.5625V6.2361H95.5242V13.8396H94.8478V6.2361H92.3828V5.5625H97.9949H97.9977Z" fill="white"/>
</svg>
